<svg width="45" height="32" viewBox="0 0 45 32" fill="none" xmlns="http://www.w3.org/2000/svg">
    <path d="M43 20V21.5H44.5V20H43ZM0.93934 18.9393C0.353553 19.5251 0.353553 20.4749 0.93934 21.0607L10.4853 30.6066C11.0711 31.1924 12.0208 31.1924 12.6066 30.6066C13.1924 30.0208 13.1924 29.0711 12.6066 28.4853L4.12132 20L12.6066 11.5147C13.1924 10.9289 13.1924 9.97918 12.6066 9.3934C12.0208 8.80761 11.0711 8.80761 10.4853 9.3934L0.93934 18.9393ZM44.5 2C44.5 1.17157 43.8284 0.5 43 0.5C42.1716 0.5 41.5 1.17157 41.5 2H44.5ZM43 18.5H2V21.5H43V18.5ZM44.5 20V2H41.5V20H44.5Z" fill="white"/>
</svg>
